<?xml version="1.0" encoding="UTF-8"?>
<svg width="375px" height="812px" viewBox="0 0 375 812" version="1.1" xmlns="http://www.w3.org/2000/svg" xmlns:xlink="http://www.w3.org/1999/xlink">
    <!-- Generator: Sketch 52.4 (67378) - http://www.bohemiancoding.com/sketch -->
    <title>Categories 2</title>
    <desc>Created with Sketch.</desc>
    <defs>
        <path d="M2.33333327,9.98958331 L2.33333327,9.26041664 C2.33333327,8.65634763 2.82301427,8.16666664 3.42708328,8.16666664 L19.8333334,8.16666664 L19.8333334,5.97916663 C19.8333334,5.00541011 21.0136263,4.51891922 21.7005013,5.20574865 L25.3463347,8.85158201 C25.7734441,9.27873696 25.7734441,9.971263 25.3463347,10.3983724 L21.7005013,14.0442057 C21.016224,14.7283464 19.8333334,14.2486458 19.8333334,13.2708333 L19.8333334,11.0833333 L3.42708328,11.0833333 C2.82301427,11.0833333 2.33333327,10.5936523 2.33333327,9.98958331 Z M24.5729167,16.9166667 L8.16666664,16.9166667 L8.16666664,14.7291667 C8.16666664,13.7578255 6.98805986,13.2671875 6.29949866,13.9557487 L2.65366531,17.601582 C2.22655593,18.028737 2.22655593,18.721263 2.65366531,19.1483724 L6.29949866,22.7942058 C6.98436845,23.47903 8.16666664,22.99778 8.16666664,22.0208334 L8.16666664,19.8333334 L24.5729167,19.8333334 C25.1769857,19.8333334 25.6666667,19.3436524 25.6666667,18.7395834 L25.6666667,18.0104167 C25.6666667,17.4063477 25.1769857,16.9166667 24.5729167,16.9166667 Z" id="path-1"></path>
        <path d="M2.33333327,9.98958331 L2.33333327,9.26041664 C2.33333327,8.65634763 2.82301427,8.16666664 3.42708328,8.16666664 L19.8333334,8.16666664 L19.8333334,5.97916663 C19.8333334,5.00541011 21.0136263,4.51891922 21.7005013,5.20574865 L25.3463347,8.85158201 C25.7734441,9.27873696 25.7734441,9.971263 25.3463347,10.3983724 L21.7005013,14.0442057 C21.016224,14.7283464 19.8333334,14.2486458 19.8333334,13.2708333 L19.8333334,11.0833333 L3.42708328,11.0833333 C2.82301427,11.0833333 2.33333327,10.5936523 2.33333327,9.98958331 Z M24.5729167,16.9166667 L8.16666664,16.9166667 L8.16666664,14.7291667 C8.16666664,13.7578255 6.98805986,13.2671875 6.29949866,13.9557487 L2.65366531,17.601582 C2.22655593,18.028737 2.22655593,18.721263 2.65366531,19.1483724 L6.29949866,22.7942058 C6.98436845,23.47903 8.16666664,22.99778 8.16666664,22.0208334 L8.16666664,19.8333334 L24.5729167,19.8333334 C25.1769857,19.8333334 25.6666667,19.3436524 25.6666667,18.7395834 L25.6666667,18.0104167 C25.6666667,17.4063477 25.1769857,16.9166667 24.5729167,16.9166667 Z" id="path-3"></path>
        <path d="M2.33333327,9.98958331 L2.33333327,9.26041664 C2.33333327,8.65634763 2.82301427,8.16666664 3.42708328,8.16666664 L19.8333334,8.16666664 L19.8333334,5.97916663 C19.8333334,5.00541011 21.0136263,4.51891922 21.7005013,5.20574865 L25.3463347,8.85158201 C25.7734441,9.27873696 25.7734441,9.971263 25.3463347,10.3983724 L21.7005013,14.0442057 C21.016224,14.7283464 19.8333334,14.2486458 19.8333334,13.2708333 L19.8333334,11.0833333 L3.42708328,11.0833333 C2.82301427,11.0833333 2.33333327,10.5936523 2.33333327,9.98958331 Z M24.5729167,16.9166667 L8.16666664,16.9166667 L8.16666664,14.7291667 C8.16666664,13.7578255 6.98805986,13.2671875 6.29949866,13.9557487 L2.65366531,17.601582 C2.22655593,18.028737 2.22655593,18.721263 2.65366531,19.1483724 L6.29949866,22.7942058 C6.98436845,23.47903 8.16666664,22.99778 8.16666664,22.0208334 L8.16666664,19.8333334 L24.5729167,19.8333334 C25.1769857,19.8333334 25.6666667,19.3436524 25.6666667,18.7395834 L25.6666667,18.0104167 C25.6666667,17.4063477 25.1769857,16.9166667 24.5729167,16.9166667 Z" id="path-5"></path>
        <path d="M2.33333327,9.98958331 L2.33333327,9.26041664 C2.33333327,8.65634763 2.82301427,8.16666664 3.42708328,8.16666664 L19.8333334,8.16666664 L19.8333334,5.97916663 C19.8333334,5.00541011 21.0136263,4.51891922 21.7005013,5.20574865 L25.3463347,8.85158201 C25.7734441,9.27873696 25.7734441,9.971263 25.3463347,10.3983724 L21.7005013,14.0442057 C21.016224,14.7283464 19.8333334,14.2486458 19.8333334,13.2708333 L19.8333334,11.0833333 L3.42708328,11.0833333 C2.82301427,11.0833333 2.33333327,10.5936523 2.33333327,9.98958331 Z M24.5729167,16.9166667 L8.16666664,16.9166667 L8.16666664,14.7291667 C8.16666664,13.7578255 6.98805986,13.2671875 6.29949866,13.9557487 L2.65366531,17.601582 C2.22655593,18.028737 2.22655593,18.721263 2.65366531,19.1483724 L6.29949866,22.7942058 C6.98436845,23.47903 8.16666664,22.99778 8.16666664,22.0208334 L8.16666664,19.8333334 L24.5729167,19.8333334 C25.1769857,19.8333334 25.6666667,19.3436524 25.6666667,18.7395834 L25.6666667,18.0104167 C25.6666667,17.4063477 25.1769857,16.9166667 24.5729167,16.9166667 Z" id="path-7"></path>
        <path d="M2.33333327,9.98958331 L2.33333327,9.26041664 C2.33333327,8.65634763 2.82301427,8.16666664 3.42708328,8.16666664 L19.8333334,8.16666664 L19.8333334,5.97916663 C19.8333334,5.00541011 21.0136263,4.51891922 21.7005013,5.20574865 L25.3463347,8.85158201 C25.7734441,9.27873696 25.7734441,9.971263 25.3463347,10.3983724 L21.7005013,14.0442057 C21.016224,14.7283464 19.8333334,14.2486458 19.8333334,13.2708333 L19.8333334,11.0833333 L3.42708328,11.0833333 C2.82301427,11.0833333 2.33333327,10.5936523 2.33333327,9.98958331 Z M24.5729167,16.9166667 L8.16666664,16.9166667 L8.16666664,14.7291667 C8.16666664,13.7578255 6.98805986,13.2671875 6.29949866,13.9557487 L2.65366531,17.601582 C2.22655593,18.028737 2.22655593,18.721263 2.65366531,19.1483724 L6.29949866,22.7942058 C6.98436845,23.47903 8.16666664,22.99778 8.16666664,22.0208334 L8.16666664,19.8333334 L24.5729167,19.8333334 C25.1769857,19.8333334 25.6666667,19.3436524 25.6666667,18.7395834 L25.6666667,18.0104167 C25.6666667,17.4063477 25.1769857,16.9166667 24.5729167,16.9166667 Z" id="path-9"></path>
        <path d="M2.33333327,9.98958331 L2.33333327,9.26041664 C2.33333327,8.65634763 2.82301427,8.16666664 3.42708328,8.16666664 L19.8333334,8.16666664 L19.8333334,5.97916663 C19.8333334,5.00541011 21.0136263,4.51891922 21.7005013,5.20574865 L25.3463347,8.85158201 C25.7734441,9.27873696 25.7734441,9.971263 25.3463347,10.3983724 L21.7005013,14.0442057 C21.016224,14.7283464 19.8333334,14.2486458 19.8333334,13.2708333 L19.8333334,11.0833333 L3.42708328,11.0833333 C2.82301427,11.0833333 2.33333327,10.5936523 2.33333327,9.98958331 Z M24.5729167,16.9166667 L8.16666664,16.9166667 L8.16666664,14.7291667 C8.16666664,13.7578255 6.98805986,13.2671875 6.29949866,13.9557487 L2.65366531,17.601582 C2.22655593,18.028737 2.22655593,18.721263 2.65366531,19.1483724 L6.29949866,22.7942058 C6.98436845,23.47903 8.16666664,22.99778 8.16666664,22.0208334 L8.16666664,19.8333334 L24.5729167,19.8333334 C25.1769857,19.8333334 25.6666667,19.3436524 25.6666667,18.7395834 L25.6666667,18.0104167 C25.6666667,17.4063477 25.1769857,16.9166667 24.5729167,16.9166667 Z" id="path-11"></path>
        <path d="M2.33333327,9.98958331 L2.33333327,9.26041664 C2.33333327,8.65634763 2.82301427,8.16666664 3.42708328,8.16666664 L19.8333334,8.16666664 L19.8333334,5.97916663 C19.8333334,5.00541011 21.0136263,4.51891922 21.7005013,5.20574865 L25.3463347,8.85158201 C25.7734441,9.27873696 25.7734441,9.971263 25.3463347,10.3983724 L21.7005013,14.0442057 C21.016224,14.7283464 19.8333334,14.2486458 19.8333334,13.2708333 L19.8333334,11.0833333 L3.42708328,11.0833333 C2.82301427,11.0833333 2.33333327,10.5936523 2.33333327,9.98958331 Z M24.5729167,16.9166667 L8.16666664,16.9166667 L8.16666664,14.7291667 C8.16666664,13.7578255 6.98805986,13.2671875 6.29949866,13.9557487 L2.65366531,17.601582 C2.22655593,18.028737 2.22655593,18.721263 2.65366531,19.1483724 L6.29949866,22.7942058 C6.98436845,23.47903 8.16666664,22.99778 8.16666664,22.0208334 L8.16666664,19.8333334 L24.5729167,19.8333334 C25.1769857,19.8333334 25.6666667,19.3436524 25.6666667,18.7395834 L25.6666667,18.0104167 C25.6666667,17.4063477 25.1769857,16.9166667 24.5729167,16.9166667 Z" id="path-13"></path>
        <path d="M2.33333327,9.98958331 L2.33333327,9.26041664 C2.33333327,8.65634763 2.82301427,8.16666664 3.42708328,8.16666664 L19.8333334,8.16666664 L19.8333334,5.97916663 C19.8333334,5.00541011 21.0136263,4.51891922 21.7005013,5.20574865 L25.3463347,8.85158201 C25.7734441,9.27873696 25.7734441,9.971263 25.3463347,10.3983724 L21.7005013,14.0442057 C21.016224,14.7283464 19.8333334,14.2486458 19.8333334,13.2708333 L19.8333334,11.0833333 L3.42708328,11.0833333 C2.82301427,11.0833333 2.33333327,10.5936523 2.33333327,9.98958331 Z M24.5729167,16.9166667 L8.16666664,16.9166667 L8.16666664,14.7291667 C8.16666664,13.7578255 6.98805986,13.2671875 6.29949866,13.9557487 L2.65366531,17.601582 C2.22655593,18.028737 2.22655593,18.721263 2.65366531,19.1483724 L6.29949866,22.7942058 C6.98436845,23.47903 8.16666664,22.99778 8.16666664,22.0208334 L8.16666664,19.8333334 L24.5729167,19.8333334 C25.1769857,19.8333334 25.6666667,19.3436524 25.6666667,18.7395834 L25.6666667,18.0104167 C25.6666667,17.4063477 25.1769857,16.9166667 24.5729167,16.9166667 Z" id="path-15"></path>
        <path d="M2.33333327,9.98958331 L2.33333327,9.26041664 C2.33333327,8.65634763 2.82301427,8.16666664 3.42708328,8.16666664 L19.8333334,8.16666664 L19.8333334,5.97916663 C19.8333334,5.00541011 21.0136263,4.51891922 21.7005013,5.20574865 L25.3463347,8.85158201 C25.7734441,9.27873696 25.7734441,9.971263 25.3463347,10.3983724 L21.7005013,14.0442057 C21.016224,14.7283464 19.8333334,14.2486458 19.8333334,13.2708333 L19.8333334,11.0833333 L3.42708328,11.0833333 C2.82301427,11.0833333 2.33333327,10.5936523 2.33333327,9.98958331 Z M24.5729167,16.9166667 L8.16666664,16.9166667 L8.16666664,14.7291667 C8.16666664,13.7578255 6.98805986,13.2671875 6.29949866,13.9557487 L2.65366531,17.601582 C2.22655593,18.028737 2.22655593,18.721263 2.65366531,19.1483724 L6.29949866,22.7942058 C6.98436845,23.47903 8.16666664,22.99778 8.16666664,22.0208334 L8.16666664,19.8333334 L24.5729167,19.8333334 C25.1769857,19.8333334 25.6666667,19.3436524 25.6666667,18.7395834 L25.6666667,18.0104167 C25.6666667,17.4063477 25.1769857,16.9166667 24.5729167,16.9166667 Z" id="path-17"></path>
        <path d="M2.33333327,9.98958331 L2.33333327,9.26041664 C2.33333327,8.65634763 2.82301427,8.16666664 3.42708328,8.16666664 L19.8333334,8.16666664 L19.8333334,5.97916663 C19.8333334,5.00541011 21.0136263,4.51891922 21.7005013,5.20574865 L25.3463347,8.85158201 C25.7734441,9.27873696 25.7734441,9.971263 25.3463347,10.3983724 L21.7005013,14.0442057 C21.016224,14.7283464 19.8333334,14.2486458 19.8333334,13.2708333 L19.8333334,11.0833333 L3.42708328,11.0833333 C2.82301427,11.0833333 2.33333327,10.5936523 2.33333327,9.98958331 Z M24.5729167,16.9166667 L8.16666664,16.9166667 L8.16666664,14.7291667 C8.16666664,13.7578255 6.98805986,13.2671875 6.29949866,13.9557487 L2.65366531,17.601582 C2.22655593,18.028737 2.22655593,18.721263 2.65366531,19.1483724 L6.29949866,22.7942058 C6.98436845,23.47903 8.16666664,22.99778 8.16666664,22.0208334 L8.16666664,19.8333334 L24.5729167,19.8333334 C25.1769857,19.8333334 25.6666667,19.3436524 25.6666667,18.7395834 L25.6666667,18.0104167 C25.6666667,17.4063477 25.1769857,16.9166667 24.5729167,16.9166667 Z" id="path-19"></path>
        <path d="M2.33333327,9.98958331 L2.33333327,9.26041664 C2.33333327,8.65634763 2.82301427,8.16666664 3.42708328,8.16666664 L19.8333334,8.16666664 L19.8333334,5.97916663 C19.8333334,5.00541011 21.0136263,4.51891922 21.7005013,5.20574865 L25.3463347,8.85158201 C25.7734441,9.27873696 25.7734441,9.971263 25.3463347,10.3983724 L21.7005013,14.0442057 C21.016224,14.7283464 19.8333334,14.2486458 19.8333334,13.2708333 L19.8333334,11.0833333 L3.42708328,11.0833333 C2.82301427,11.0833333 2.33333327,10.5936523 2.33333327,9.98958331 Z M24.5729167,16.9166667 L8.16666664,16.9166667 L8.16666664,14.7291667 C8.16666664,13.7578255 6.98805986,13.2671875 6.29949866,13.9557487 L2.65366531,17.601582 C2.22655593,18.028737 2.22655593,18.721263 2.65366531,19.1483724 L6.29949866,22.7942058 C6.98436845,23.47903 8.16666664,22.99778 8.16666664,22.0208334 L8.16666664,19.8333334 L24.5729167,19.8333334 C25.1769857,19.8333334 25.6666667,19.3436524 25.6666667,18.7395834 L25.6666667,18.0104167 C25.6666667,17.4063477 25.1769857,16.9166667 24.5729167,16.9166667 Z" id="path-21"></path>
        <path d="M2.33333327,9.98958331 L2.33333327,9.26041664 C2.33333327,8.65634763 2.82301427,8.16666664 3.42708328,8.16666664 L19.8333334,8.16666664 L19.8333334,5.97916663 C19.8333334,5.00541011 21.0136263,4.51891922 21.7005013,5.20574865 L25.3463347,8.85158201 C25.7734441,9.27873696 25.7734441,9.971263 25.3463347,10.3983724 L21.7005013,14.0442057 C21.016224,14.7283464 19.8333334,14.2486458 19.8333334,13.2708333 L19.8333334,11.0833333 L3.42708328,11.0833333 C2.82301427,11.0833333 2.33333327,10.5936523 2.33333327,9.98958331 Z M24.5729167,16.9166667 L8.16666664,16.9166667 L8.16666664,14.7291667 C8.16666664,13.7578255 6.98805986,13.2671875 6.29949866,13.9557487 L2.65366531,17.601582 C2.22655593,18.028737 2.22655593,18.721263 2.65366531,19.1483724 L6.29949866,22.7942058 C6.98436845,23.47903 8.16666664,22.99778 8.16666664,22.0208334 L8.16666664,19.8333334 L24.5729167,19.8333334 C25.1769857,19.8333334 25.6666667,19.3436524 25.6666667,18.7395834 L25.6666667,18.0104167 C25.6666667,17.4063477 25.1769857,16.9166667 24.5729167,16.9166667 Z" id="path-23"></path>
        <path d="M2.33333327,9.98958331 L2.33333327,9.26041664 C2.33333327,8.65634763 2.82301427,8.16666664 3.42708328,8.16666664 L19.8333334,8.16666664 L19.8333334,5.97916663 C19.8333334,5.00541011 21.0136263,4.51891922 21.7005013,5.20574865 L25.3463347,8.85158201 C25.7734441,9.27873696 25.7734441,9.971263 25.3463347,10.3983724 L21.7005013,14.0442057 C21.016224,14.7283464 19.8333334,14.2486458 19.8333334,13.2708333 L19.8333334,11.0833333 L3.42708328,11.0833333 C2.82301427,11.0833333 2.33333327,10.5936523 2.33333327,9.98958331 Z M24.5729167,16.9166667 L8.16666664,16.9166667 L8.16666664,14.7291667 C8.16666664,13.7578255 6.98805986,13.2671875 6.29949866,13.9557487 L2.65366531,17.601582 C2.22655593,18.028737 2.22655593,18.721263 2.65366531,19.1483724 L6.29949866,22.7942058 C6.98436845,23.47903 8.16666664,22.99778 8.16666664,22.0208334 L8.16666664,19.8333334 L24.5729167,19.8333334 C25.1769857,19.8333334 25.6666667,19.3436524 25.6666667,18.7395834 L25.6666667,18.0104167 C25.6666667,17.4063477 25.1769857,16.9166667 24.5729167,16.9166667 Z" id="path-25"></path>
        <path d="M2.33333327,9.98958331 L2.33333327,9.26041664 C2.33333327,8.65634763 2.82301427,8.16666664 3.42708328,8.16666664 L19.8333334,8.16666664 L19.8333334,5.97916663 C19.8333334,5.00541011 21.0136263,4.51891922 21.7005013,5.20574865 L25.3463347,8.85158201 C25.7734441,9.27873696 25.7734441,9.971263 25.3463347,10.3983724 L21.7005013,14.0442057 C21.016224,14.7283464 19.8333334,14.2486458 19.8333334,13.2708333 L19.8333334,11.0833333 L3.42708328,11.0833333 C2.82301427,11.0833333 2.33333327,10.5936523 2.33333327,9.98958331 Z M24.5729167,16.9166667 L8.16666664,16.9166667 L8.16666664,14.7291667 C8.16666664,13.7578255 6.98805986,13.2671875 6.29949866,13.9557487 L2.65366531,17.601582 C2.22655593,18.028737 2.22655593,18.721263 2.65366531,19.1483724 L6.29949866,22.7942058 C6.98436845,23.47903 8.16666664,22.99778 8.16666664,22.0208334 L8.16666664,19.8333334 L24.5729167,19.8333334 C25.1769857,19.8333334 25.6666667,19.3436524 25.6666667,18.7395834 L25.6666667,18.0104167 C25.6666667,17.4063477 25.1769857,16.9166667 24.5729167,16.9166667 Z" id="path-27"></path>
        <path d="M2.33333327,9.98958331 L2.33333327,9.26041664 C2.33333327,8.65634763 2.82301427,8.16666664 3.42708328,8.16666664 L19.8333334,8.16666664 L19.8333334,5.97916663 C19.8333334,5.00541011 21.0136263,4.51891922 21.7005013,5.20574865 L25.3463347,8.85158201 C25.7734441,9.27873696 25.7734441,9.971263 25.3463347,10.3983724 L21.7005013,14.0442057 C21.016224,14.7283464 19.8333334,14.2486458 19.8333334,13.2708333 L19.8333334,11.0833333 L3.42708328,11.0833333 C2.82301427,11.0833333 2.33333327,10.5936523 2.33333327,9.98958331 Z M24.5729167,16.9166667 L8.16666664,16.9166667 L8.16666664,14.7291667 C8.16666664,13.7578255 6.98805986,13.2671875 6.29949866,13.9557487 L2.65366531,17.601582 C2.22655593,18.028737 2.22655593,18.721263 2.65366531,19.1483724 L6.29949866,22.7942058 C6.98436845,23.47903 8.16666664,22.99778 8.16666664,22.0208334 L8.16666664,19.8333334 L24.5729167,19.8333334 C25.1769857,19.8333334 25.6666667,19.3436524 25.6666667,18.7395834 L25.6666667,18.0104167 C25.6666667,17.4063477 25.1769857,16.9166667 24.5729167,16.9166667 Z" id="path-29"></path>
        <path d="M2.33333327,9.98958331 L2.33333327,9.26041664 C2.33333327,8.65634763 2.82301427,8.16666664 3.42708328,8.16666664 L19.8333334,8.16666664 L19.8333334,5.97916663 C19.8333334,5.00541011 21.0136263,4.51891922 21.7005013,5.20574865 L25.3463347,8.85158201 C25.7734441,9.27873696 25.7734441,9.971263 25.3463347,10.3983724 L21.7005013,14.0442057 C21.016224,14.7283464 19.8333334,14.2486458 19.8333334,13.2708333 L19.8333334,11.0833333 L3.42708328,11.0833333 C2.82301427,11.0833333 2.33333327,10.5936523 2.33333327,9.98958331 Z M24.5729167,16.9166667 L8.16666664,16.9166667 L8.16666664,14.7291667 C8.16666664,13.7578255 6.98805986,13.2671875 6.29949866,13.9557487 L2.65366531,17.601582 C2.22655593,18.028737 2.22655593,18.721263 2.65366531,19.1483724 L6.29949866,22.7942058 C6.98436845,23.47903 8.16666664,22.99778 8.16666664,22.0208334 L8.16666664,19.8333334 L24.5729167,19.8333334 C25.1769857,19.8333334 25.6666667,19.3436524 25.6666667,18.7395834 L25.6666667,18.0104167 C25.6666667,17.4063477 25.1769857,16.9166667 24.5729167,16.9166667 Z" id="path-31"></path>
        <path d="M2.33333327,9.98958331 L2.33333327,9.26041664 C2.33333327,8.65634763 2.82301427,8.16666664 3.42708328,8.16666664 L19.8333334,8.16666664 L19.8333334,5.97916663 C19.8333334,5.00541011 21.0136263,4.51891922 21.7005013,5.20574865 L25.3463347,8.85158201 C25.7734441,9.27873696 25.7734441,9.971263 25.3463347,10.3983724 L21.7005013,14.0442057 C21.016224,14.7283464 19.8333334,14.2486458 19.8333334,13.2708333 L19.8333334,11.0833333 L3.42708328,11.0833333 C2.82301427,11.0833333 2.33333327,10.5936523 2.33333327,9.98958331 Z M24.5729167,16.9166667 L8.16666664,16.9166667 L8.16666664,14.7291667 C8.16666664,13.7578255 6.98805986,13.2671875 6.29949866,13.9557487 L2.65366531,17.601582 C2.22655593,18.028737 2.22655593,18.721263 2.65366531,19.1483724 L6.29949866,22.7942058 C6.98436845,23.47903 8.16666664,22.99778 8.16666664,22.0208334 L8.16666664,19.8333334 L24.5729167,19.8333334 C25.1769857,19.8333334 25.6666667,19.3436524 25.6666667,18.7395834 L25.6666667,18.0104167 C25.6666667,17.4063477 25.1769857,16.9166667 24.5729167,16.9166667 Z" id="path-33"></path>
        <path d="M2.33333327,9.98958331 L2.33333327,9.26041664 C2.33333327,8.65634763 2.82301427,8.16666664 3.42708328,8.16666664 L19.8333334,8.16666664 L19.8333334,5.97916663 C19.8333334,5.00541011 21.0136263,4.51891922 21.7005013,5.20574865 L25.3463347,8.85158201 C25.7734441,9.27873696 25.7734441,9.971263 25.3463347,10.3983724 L21.7005013,14.0442057 C21.016224,14.7283464 19.8333334,14.2486458 19.8333334,13.2708333 L19.8333334,11.0833333 L3.42708328,11.0833333 C2.82301427,11.0833333 2.33333327,10.5936523 2.33333327,9.98958331 Z M24.5729167,16.9166667 L8.16666664,16.9166667 L8.16666664,14.7291667 C8.16666664,13.7578255 6.98805986,13.2671875 6.29949866,13.9557487 L2.65366531,17.601582 C2.22655593,18.028737 2.22655593,18.721263 2.65366531,19.1483724 L6.29949866,22.7942058 C6.98436845,23.47903 8.16666664,22.99778 8.16666664,22.0208334 L8.16666664,19.8333334 L24.5729167,19.8333334 C25.1769857,19.8333334 25.6666667,19.3436524 25.6666667,18.7395834 L25.6666667,18.0104167 C25.6666667,17.4063477 25.1769857,16.9166667 24.5729167,16.9166667 Z" id="path-35"></path>
        <path d="M2.33333327,9.98958331 L2.33333327,9.26041664 C2.33333327,8.65634763 2.82301427,8.16666664 3.42708328,8.16666664 L19.8333334,8.16666664 L19.8333334,5.97916663 C19.8333334,5.00541011 21.0136263,4.51891922 21.7005013,5.20574865 L25.3463347,8.85158201 C25.7734441,9.27873696 25.7734441,9.971263 25.3463347,10.3983724 L21.7005013,14.0442057 C21.016224,14.7283464 19.8333334,14.2486458 19.8333334,13.2708333 L19.8333334,11.0833333 L3.42708328,11.0833333 C2.82301427,11.0833333 2.33333327,10.5936523 2.33333327,9.98958331 Z M24.5729167,16.9166667 L8.16666664,16.9166667 L8.16666664,14.7291667 C8.16666664,13.7578255 6.98805986,13.2671875 6.29949866,13.9557487 L2.65366531,17.601582 C2.22655593,18.028737 2.22655593,18.721263 2.65366531,19.1483724 L6.29949866,22.7942058 C6.98436845,23.47903 8.16666664,22.99778 8.16666664,22.0208334 L8.16666664,19.8333334 L24.5729167,19.8333334 C25.1769857,19.8333334 25.6666667,19.3436524 25.6666667,18.7395834 L25.6666667,18.0104167 C25.6666667,17.4063477 25.1769857,16.9166667 24.5729167,16.9166667 Z" id="path-37"></path>
        <path d="M2.33333327,9.98958331 L2.33333327,9.26041664 C2.33333327,8.65634763 2.82301427,8.16666664 3.42708328,8.16666664 L19.8333334,8.16666664 L19.8333334,5.97916663 C19.8333334,5.00541011 21.0136263,4.51891922 21.7005013,5.20574865 L25.3463347,8.85158201 C25.7734441,9.27873696 25.7734441,9.971263 25.3463347,10.3983724 L21.7005013,14.0442057 C21.016224,14.7283464 19.8333334,14.2486458 19.8333334,13.2708333 L19.8333334,11.0833333 L3.42708328,11.0833333 C2.82301427,11.0833333 2.33333327,10.5936523 2.33333327,9.98958331 Z M24.5729167,16.9166667 L8.16666664,16.9166667 L8.16666664,14.7291667 C8.16666664,13.7578255 6.98805986,13.2671875 6.29949866,13.9557487 L2.65366531,17.601582 C2.22655593,18.028737 2.22655593,18.721263 2.65366531,19.1483724 L6.29949866,22.7942058 C6.98436845,23.47903 8.16666664,22.99778 8.16666664,22.0208334 L8.16666664,19.8333334 L24.5729167,19.8333334 C25.1769857,19.8333334 25.6666667,19.3436524 25.6666667,18.7395834 L25.6666667,18.0104167 C25.6666667,17.4063477 25.1769857,16.9166667 24.5729167,16.9166667 Z" id="path-39"></path>
        <path d="M2.33333327,9.98958331 L2.33333327,9.26041664 C2.33333327,8.65634763 2.82301427,8.16666664 3.42708328,8.16666664 L19.8333334,8.16666664 L19.8333334,5.97916663 C19.8333334,5.00541011 21.0136263,4.51891922 21.7005013,5.20574865 L25.3463347,8.85158201 C25.7734441,9.27873696 25.7734441,9.971263 25.3463347,10.3983724 L21.7005013,14.0442057 C21.016224,14.7283464 19.8333334,14.2486458 19.8333334,13.2708333 L19.8333334,11.0833333 L3.42708328,11.0833333 C2.82301427,11.0833333 2.33333327,10.5936523 2.33333327,9.98958331 Z M24.5729167,16.9166667 L8.16666664,16.9166667 L8.16666664,14.7291667 C8.16666664,13.7578255 6.98805986,13.2671875 6.29949866,13.9557487 L2.65366531,17.601582 C2.22655593,18.028737 2.22655593,18.721263 2.65366531,19.1483724 L6.29949866,22.7942058 C6.98436845,23.47903 8.16666664,22.99778 8.16666664,22.0208334 L8.16666664,19.8333334 L24.5729167,19.8333334 C25.1769857,19.8333334 25.6666667,19.3436524 25.6666667,18.7395834 L25.6666667,18.0104167 C25.6666667,17.4063477 25.1769857,16.9166667 24.5729167,16.9166667 Z" id="path-41"></path>
    </defs>
    <g id="Categories-2" stroke="none" stroke-width="1" fill="none" fill-rule="evenodd">
        <rect fill="#F7F7F7" x="0" y="0" width="375" height="812"></rect>
        <text id="Browse-categories" font-family="SFProText-Bold, SF Pro Text" font-size="16" font-weight="bold" fill="#000000">
            <tspan x="18" y="121">Browse categories</tspan>
        </text>
        <text id="Done" font-family="SFProText-Bold, SF Pro Text" font-size="14" font-weight="bold" fill="#3D3F55">
            <tspan x="321.660156" y="121">Done</tspan>
        </text>
        <text id="New-to-Drop" font-family="SFProText-Regular, SF Pro Text" font-size="16" font-weight="normal" fill="#000000">
            <tspan x="18" y="180">New to Drop</tspan>
        </text>
        <text id="Food-&amp;-Grocery" font-family="SFProText-Regular, SF Pro Text" font-size="16" font-weight="normal" fill="#000000">
            <tspan x="18" y="236">Food &amp; Grocery</tspan>
        </text>
        <text id="Health-&amp;-Fitness" font-family="SFProText-Regular, SF Pro Text" font-size="16" font-weight="normal" fill="#000000">
            <tspan x="18" y="293">Health &amp; Fitness</tspan>
        </text>
        <text id="Entertainment" font-family="SFProText-Regular, SF Pro Text" font-size="16" font-weight="normal" fill="#000000">
            <tspan x="18" y="349">Entertainment</tspan>
        </text>
        <text id="Personal-care" font-family="SFProText-Regular, SF Pro Text" font-size="16" font-weight="normal" fill="#000000">
            <tspan x="18" y="406">Personal care</tspan>
        </text>
        <text id="Apparel" font-family="SFProText-Regular, SF Pro Text" font-size="16" font-weight="normal" fill="#000000">
            <tspan x="18" y="462">Apparel</tspan>
        </text>
        <text id="Footwear-&amp;-Accessori" font-family="SFProText-Regular, SF Pro Text" font-size="16" font-weight="normal" fill="#000000">
            <tspan x="18" y="519">Footwear &amp; Accessories</tspan>
        </text>
        <text id="Travel" font-family="SFProText-Regular, SF Pro Text" font-size="16" font-weight="normal" fill="#000000">
            <tspan x="18" y="575">Travel</tspan>
        </text>
        <text id="Home-&amp;-Tech" font-family="SFProText-Regular, SF Pro Text" font-size="16" font-weight="normal" fill="#000000">
            <tspan x="18" y="632">Home &amp; Tech</tspan>
        </text>
        <text id="Finances" font-family="SFProText-Regular, SF Pro Text" font-size="16" font-weight="normal" fill="#000000">
            <tspan x="18" y="688">Finances</tspan>
        </text>
        <text id="Specialty-&amp;-Gifting" font-family="SFProText-Regular, SF Pro Text" font-size="16" font-weight="normal" fill="#000000">
            <tspan x="18" y="745">Specialty &amp; Gifting</tspan>
        </text>
        <rect id="Rectangle" fill="#FEF5E4" x="287" y="45" width="67" height="28" rx="14"></rect>
        <g id="Profile" transform="translate(18.000000, 42.000000)" fill-rule="nonzero">
            <circle id="Oval" fill="#888888" cx="15" cy="15" r="15"></circle>
            <circle id="Oval" fill="#FDFDFD" cx="15" cy="12" r="5.25"></circle>
            <path d="M6.76230369,23.25 C9.43727406,20.1805532 12.300488,18.6815432 15.3519456,18.7529699 C18.8185966,18.8341153 21.4840248,20.3378356 23.3482303,23.2641307 L23.3189775,23.2641307 C22.8276638,23.9358133 22.0938593,24.5586735 21.117564,25.1327114 C19.6428567,25.9998034 17.373855,26.7158415 15.0396363,26.7158415 C12.8780316,26.7158415 10.3290918,25.7747322 9.01495444,25.1327114 C7.99733761,24.6355555 7.2453988,24.0126953 6.75913801,23.2641307 L6.75,23.2641307 C6.75174547,23.2621243 6.75349103,23.2601185 6.75523666,23.2581133 C6.75348765,23.2554105 6.7517421,23.2527061 6.75,23.25 L6.76230369,23.25 Z" id="Combined-Shape" fill="#FDFDFD"></path>
        </g>
        <g id="Drop-/-Earn-Points-Symbol" transform="translate(294.000000, 49.000000)">
            <g id="Group-2">
                <circle id="Oval-5" fill="#FFBB46" cx="10" cy="10" r="10"></circle>
                <circle id="Oval-6" fill="#FFD897" cx="10" cy="10" r="7.22222222"></circle>
                <circle id="Oval-7" fill="#FFBB46" cx="10" cy="10" r="4.44444444"></circle>
            </g>
        </g>
        <text id="868" font-family="SFProText-Bold, SF Pro Text" font-size="13" font-weight="bold" fill="#FFBB46">
            <tspan x="318" y="63">868</tspan>
        </text>
        <g id="iPhone-X/Status-Bars/Status-Bar-(Black)" transform="translate(-2.000000, 0.000000)">
            <g>
                <rect id="Rectangle" x="0" y="0" width="375" height="44"></rect>
                <g id="Battery" transform="translate(336.000000, 17.000000)">
                    <rect id="Border" stroke="#000000" opacity="0.35" x="0.5" y="0.833333333" width="21" height="10.3333333" rx="2.66666675"></rect>
                    <path d="M23,4 L23,8 C23.8047311,7.66122348 24.328038,6.87313328 24.328038,6 C24.328038,5.12686672 23.8047311,4.33877652 23,4" id="Cap" fill="#000000" fill-rule="nonzero" opacity="0.4"></path>
                    <rect id="Capacity" fill="#000000" fill-rule="nonzero" x="2" y="2.33333333" width="18" height="7.33333333" rx="1.33333337"></rect>
                </g>
                <path d="M323.330333,19.608 C325.546226,19.6080971 327.677386,20.4595347 329.283333,21.9863333 C329.404265,22.1042079 329.597562,22.102721 329.716667,21.983 L330.872667,20.8163333 C330.932975,20.7556112 330.966599,20.6733595 330.966098,20.5877792 C330.965598,20.5021988 330.931014,20.420346 330.87,20.3603333 C326.654902,16.3207858 320.005098,16.3207858 315.79,20.3603333 C315.728941,20.4203015 315.694297,20.5021294 315.693734,20.5877099 C315.693171,20.6732903 315.726736,20.755567 315.787,20.8163333 L316.943333,21.983 C317.062362,22.1029017 317.255808,22.1043897 317.376667,21.9863333 C318.982819,20.4594344 321.114223,19.6079944 323.330333,19.608 Z M323.330333,23.4036667 C324.547823,23.4035921 325.721865,23.8561245 326.624333,24.6733333 C326.746397,24.7893139 326.938678,24.7867994 327.057667,24.6676667 L328.212333,23.501 C328.273141,23.439805 328.30688,23.3567887 328.306003,23.2705239 C328.305126,23.1842592 328.269706,23.101946 328.207667,23.042 C325.459468,20.4856177 321.203532,20.4856177 318.455333,23.042 C318.393256,23.1019453 318.357837,23.1842997 318.357023,23.2705923 C318.356208,23.356885 318.390065,23.4398934 318.451,23.501 L319.605333,24.6676667 C319.724322,24.7867994 319.916603,24.7893139 320.038667,24.6733333 C320.940539,23.8566645 322.113649,23.4041708 323.330333,23.4036667 Z M325.549333,26.188 C325.611087,26.127394 325.645095,26.0439919 325.643328,25.957485 C325.641561,25.8709782 325.604176,25.7890342 325.54,25.731 C324.264428,24.6521162 322.396238,24.6521162 321.120667,25.731 C321.056446,25.7889875 321.019,25.8709057 321.01717,25.957413 C321.01534,26.0439203 321.049289,26.1273487 321.111,26.188 L323.108667,28.2036667 C323.167217,28.2629057 323.247042,28.2962443 323.330333,28.2962443 C323.413624,28.2962443 323.49345,28.2629057 323.552,28.2036667 L325.549333,26.188 Z" id="Wifi" fill="#000000" fill-rule="nonzero"></path>
                <path d="M294.666667,24.3333333 L295.666667,24.3333333 C296.218951,24.3333333 296.666667,24.7810486 296.666667,25.3333333 L296.666667,27.3333333 C296.666667,27.8856181 296.218951,28.3333333 295.666667,28.3333333 L294.666667,28.3333333 C294.114382,28.3333333 293.666667,27.8856181 293.666667,27.3333333 L293.666667,25.3333333 C293.666667,24.7810486 294.114382,24.3333333 294.666667,24.3333333 Z M299.333333,22.3333333 L300.333333,22.3333333 C300.885618,22.3333333 301.333333,22.7810486 301.333333,23.3333333 L301.333333,27.3333333 C301.333333,27.8856181 300.885618,28.3333333 300.333333,28.3333333 L299.333333,28.3333333 C298.781049,28.3333333 298.333333,27.8856181 298.333333,27.3333333 L298.333333,23.3333333 C298.333333,22.7810486 298.781049,22.3333333 299.333333,22.3333333 Z M304,20 L305,20 C305.552285,20 306,20.4477153 306,21 L306,27.3333333 C306,27.8856181 305.552285,28.3333333 305,28.3333333 L304,28.3333333 C303.447715,28.3333333 303,27.8856181 303,27.3333333 L303,21 C303,20.4477153 303.447715,20 304,20 Z M308.666667,17.6666667 L309.666667,17.6666667 C310.218951,17.6666667 310.666667,18.1143819 310.666667,18.6666667 L310.666667,27.3333333 C310.666667,27.8856181 310.218951,28.3333333 309.666667,28.3333333 L308.666667,28.3333333 C308.114382,28.3333333 307.666667,27.8856181 307.666667,27.3333333 L307.666667,18.6666667 C307.666667,18.1143819 308.114382,17.6666667 308.666667,17.6666667 Z" id="Cellular-Connection" fill="#000000" fill-rule="nonzero"></path>
                <g id="iPhone-X/Overrides/Time-Black" transform="translate(21.000000, 13.000000)" fill="#000000" font-family="SFProText-Semibold, SF Pro Text" font-size="14" font-weight="500" letter-spacing="-0.280000001">
                    <text id="↳-Time">
                        <tspan x="12.3023242" y="15.5">9:4</tspan>
                        <tspan x="34.7523633" y="15.5">1</tspan>
                    </text>
                </g>
            </g>
        </g>
        <path d="M-1.5,84.5 L376.5,84.5" id="Line" stroke="#979797" stroke-width="0.25" stroke-linecap="square"></path>
        <text id="Browse" font-family="SFProText-Medium, SF Pro Text" font-size="18" font-weight="400" fill="#000000">
            <tspan x="154.095703" y="64">Browse</tspan>
        </text>
        <g id="exchange-alt" fill="#3D3F55" fill-rule="nonzero" transform="translate(340.000000, 175.000000) rotate(90.000000) translate(-340.000000, -175.000000) translate(326.000000, 161.000000)">
            <mask id="mask-2" fill="white">
                <use xlink:href="#path-1"></use>
            </mask>
            <use fill="#000000" xlink:href="#path-1"></use>
            <g fill="none" mask="url(#mask-2)">
                <mask id="mask-4" fill="white">
                    <use xlink:href="#path-3"></use>
                </mask>
                <use fill="#000000" fill-rule="nonzero" xlink:href="#path-3"></use>
                <g id="Colour/BlueGrey" mask="url(#mask-4)" fill="#3D3F55" fill-rule="nonzero">
                    <rect id="Rectangle" x="0" y="0" width="28" height="28"></rect>
                </g>
            </g>
        </g>
        <g id="exchange-alt" fill="#3D3F55" fill-rule="nonzero" transform="translate(340.000000, 232.000000) rotate(90.000000) translate(-340.000000, -232.000000) translate(326.000000, 218.000000)">
            <mask id="mask-6" fill="white">
                <use xlink:href="#path-5"></use>
            </mask>
            <use fill="#000000" xlink:href="#path-5"></use>
            <g fill="none" mask="url(#mask-6)">
                <mask id="mask-8" fill="white">
                    <use xlink:href="#path-7"></use>
                </mask>
                <use fill="#000000" fill-rule="nonzero" xlink:href="#path-7"></use>
                <g id="Colour/BlueGrey" mask="url(#mask-8)" fill="#3D3F55" fill-rule="nonzero">
                    <rect id="Rectangle" x="0" y="0" width="28" height="28"></rect>
                </g>
            </g>
        </g>
        <g id="exchange-alt" fill="#3D3F55" fill-rule="nonzero" transform="translate(340.000000, 289.000000) rotate(90.000000) translate(-340.000000, -289.000000) translate(326.000000, 275.000000)">
            <mask id="mask-10" fill="white">
                <use xlink:href="#path-9"></use>
            </mask>
            <use fill="#000000" xlink:href="#path-9"></use>
            <g fill="none" mask="url(#mask-10)">
                <mask id="mask-12" fill="white">
                    <use xlink:href="#path-11"></use>
                </mask>
                <use fill="#000000" fill-rule="nonzero" xlink:href="#path-11"></use>
                <g id="Colour/BlueGrey" mask="url(#mask-12)" fill="#3D3F55" fill-rule="nonzero">
                    <rect id="Rectangle" x="0" y="0" width="28" height="28"></rect>
                </g>
            </g>
        </g>
        <g id="exchange-alt" fill="#3D3F55" fill-rule="nonzero" transform="translate(340.000000, 570.500000) rotate(90.000000) translate(-340.000000, -570.500000) translate(326.000000, 556.500000)">
            <mask id="mask-14" fill="white">
                <use xlink:href="#path-13"></use>
            </mask>
            <use fill="#000000" xlink:href="#path-13"></use>
            <g fill="none" mask="url(#mask-14)">
                <mask id="mask-16" fill="white">
                    <use xlink:href="#path-15"></use>
                </mask>
                <use fill="#000000" fill-rule="nonzero" xlink:href="#path-15"></use>
                <g id="Colour/BlueGrey" mask="url(#mask-16)" fill="#3D3F55" fill-rule="nonzero">
                    <rect id="Rectangle" x="0" y="0" width="28" height="28"></rect>
                </g>
            </g>
        </g>
        <g id="exchange-alt" fill="#3D3F55" fill-rule="nonzero" transform="translate(340.000000, 626.500000) rotate(90.000000) translate(-340.000000, -626.500000) translate(326.000000, 612.500000)">
            <mask id="mask-18" fill="white">
                <use xlink:href="#path-17"></use>
            </mask>
            <use fill="#000000" xlink:href="#path-17"></use>
            <g fill="none" mask="url(#mask-18)">
                <mask id="mask-20" fill="white">
                    <use xlink:href="#path-19"></use>
                </mask>
                <use fill="#000000" fill-rule="nonzero" xlink:href="#path-19"></use>
                <g id="Colour/BlueGrey" mask="url(#mask-20)" fill="#3D3F55" fill-rule="nonzero">
                    <rect id="Rectangle" x="0" y="0" width="28" height="28"></rect>
                </g>
            </g>
        </g>
        <g id="exchange-alt" fill="#3D3F55" fill-rule="nonzero" transform="translate(340.000000, 684.500000) rotate(90.000000) translate(-340.000000, -684.500000) translate(326.000000, 670.500000)">
            <mask id="mask-22" fill="white">
                <use xlink:href="#path-21"></use>
            </mask>
            <use fill="#000000" xlink:href="#path-21"></use>
            <g fill="none" mask="url(#mask-22)">
                <mask id="mask-24" fill="white">
                    <use xlink:href="#path-23"></use>
                </mask>
                <use fill="#000000" fill-rule="nonzero" xlink:href="#path-23"></use>
                <g id="Colour/BlueGrey" mask="url(#mask-24)" fill="#3D3F55" fill-rule="nonzero">
                    <rect id="Rectangle" x="0" y="0" width="28" height="28"></rect>
                </g>
            </g>
        </g>
        <g id="exchange-alt" fill="#3D3F55" fill-rule="nonzero" transform="translate(340.000000, 740.500000) rotate(90.000000) translate(-340.000000, -740.500000) translate(326.000000, 726.500000)">
            <mask id="mask-26" fill="white">
                <use xlink:href="#path-25"></use>
            </mask>
            <use fill="#000000" xlink:href="#path-25"></use>
            <g fill="none" mask="url(#mask-26)">
                <mask id="mask-28" fill="white">
                    <use xlink:href="#path-27"></use>
                </mask>
                <use fill="#000000" fill-rule="nonzero" xlink:href="#path-27"></use>
                <g id="Colour/BlueGrey" mask="url(#mask-28)" fill="#3D3F55" fill-rule="nonzero">
                    <rect id="Rectangle" x="0" y="0" width="28" height="28"></rect>
                </g>
            </g>
        </g>
        <g id="exchange-alt" fill="#3D3F55" fill-rule="nonzero" transform="translate(340.000000, 344.500000) rotate(90.000000) translate(-340.000000, -344.500000) translate(326.000000, 330.500000)">
            <mask id="mask-30" fill="white">
                <use xlink:href="#path-29"></use>
            </mask>
            <use fill="#000000" xlink:href="#path-29"></use>
            <g fill="none" mask="url(#mask-30)">
                <mask id="mask-32" fill="white">
                    <use xlink:href="#path-31"></use>
                </mask>
                <use fill="#000000" fill-rule="nonzero" xlink:href="#path-31"></use>
                <g id="Colour/BlueGrey" mask="url(#mask-32)" fill="#3D3F55" fill-rule="nonzero">
                    <rect id="Rectangle" x="0" y="0" width="28" height="28"></rect>
                </g>
            </g>
        </g>
        <g id="exchange-alt" fill="#3D3F55" fill-rule="nonzero" transform="translate(340.000000, 402.000000) rotate(90.000000) translate(-340.000000, -402.000000) translate(326.000000, 388.000000)">
            <mask id="mask-34" fill="white">
                <use xlink:href="#path-33"></use>
            </mask>
            <use fill="#000000" xlink:href="#path-33"></use>
            <g fill="none" mask="url(#mask-34)">
                <mask id="mask-36" fill="white">
                    <use xlink:href="#path-35"></use>
                </mask>
                <use fill="#000000" fill-rule="nonzero" xlink:href="#path-35"></use>
                <g id="Colour/BlueGrey" mask="url(#mask-36)" fill="#3D3F55" fill-rule="nonzero">
                    <rect id="Rectangle" x="0" y="0" width="28" height="28"></rect>
                </g>
            </g>
        </g>
        <g id="exchange-alt" fill="#3D3F55" fill-rule="nonzero" transform="translate(340.000000, 515.000000) rotate(90.000000) translate(-340.000000, -515.000000) translate(326.000000, 501.000000)">
            <mask id="mask-38" fill="white">
                <use xlink:href="#path-37"></use>
            </mask>
            <use fill="#000000" xlink:href="#path-37"></use>
            <g fill="none" mask="url(#mask-38)">
                <mask id="mask-40" fill="white">
                    <use xlink:href="#path-39"></use>
                </mask>
                <use fill="#000000" fill-rule="nonzero" xlink:href="#path-39"></use>
                <g id="Colour/BlueGrey" mask="url(#mask-40)" fill="#3D3F55" fill-rule="nonzero">
                    <rect id="Rectangle" x="0" y="0" width="28" height="28"></rect>
                </g>
            </g>
        </g>
        <g id="exchange-alt" transform="translate(340.000000, 456.500000) rotate(90.000000) translate(-340.000000, -456.500000) translate(326.000000, 442.500000)">
            <mask id="mask-42" fill="white">
                <use xlink:href="#path-41"></use>
            </mask>
            <use fill="#000000" fill-rule="nonzero" xlink:href="#path-41"></use>
            <g id="Colour/Green" mask="url(#mask-42)" fill="#46DB9A" fill-rule="evenodd">
                <rect id="Rectangle" x="0" y="0" width="28" height="28"></rect>
            </g>
        </g>
        <g id="iPhone-X/Home-Indicator/Home-Indicator---On-Light" transform="translate(0.000000, 776.000000)" fill="#000000">
            <rect id="Rectangle-24" x="121" y="20" width="134" height="5" rx="2.5"></rect>
        </g>
    </g>
</svg>