<?xml version="1.0" encoding="UTF-8"?>
<svg width="375px" height="812px" viewBox="0 0 375 812" version="1.1" xmlns="http://www.w3.org/2000/svg" xmlns:xlink="http://www.w3.org/1999/xlink">
    <!-- Generator: Sketch 52.4 (67378) - http://www.bohemiancoding.com/sketch -->
    <title>Categories 1</title>
    <desc>Created with Sketch.</desc>
    <g id="Categories-1" stroke="none" stroke-width="1" fill="none" fill-rule="evenodd">
        <rect fill="#F7F7F7" x="0" y="0" width="375" height="812"></rect>
        <text id="Browse-categories" font-family="SFProText-Bold, SF Pro Text" font-size="16" font-weight="bold" fill="#000000">
            <tspan x="16" y="122">Browse categories</tspan>
        </text>
        <text id="Manage" font-family="SFProText-Bold, SF Pro Text" font-size="14" font-weight="bold" fill="#3D3F55">
            <tspan x="300.410156" y="122">Manage</tspan>
        </text>
        <text id="New-to-Drop" font-family="SFProText-Regular, SF Pro Text" font-size="16" font-weight="normal" fill="#000000">
            <tspan x="16" y="181">New to Drop</tspan>
        </text>
        <text id="Food-&amp;-Grocery" font-family="SFProText-Regular, SF Pro Text" font-size="16" font-weight="normal" fill="#000000">
            <tspan x="16" y="237">Food &amp; Grocery</tspan>
        </text>
        <text id="Health-&amp;-Fitness" font-family="SFProText-Regular, SF Pro Text" font-size="16" font-weight="normal" fill="#000000">
            <tspan x="16" y="294">Health &amp; Fitness</tspan>
        </text>
        <text id="Entertainment" font-family="SFProText-Regular, SF Pro Text" font-size="16" font-weight="normal" fill="#000000">
            <tspan x="16" y="350">Entertainment</tspan>
        </text>
        <text id="Personal-care" font-family="SFProText-Regular, SF Pro Text" font-size="16" font-weight="normal" fill="#000000">
            <tspan x="16" y="407">Personal care</tspan>
        </text>
        <text id="Apparel" font-family="SFProText-Regular, SF Pro Text" font-size="16" font-weight="normal" fill="#000000">
            <tspan x="16" y="463">Apparel</tspan>
        </text>
        <text id="Footwear-&amp;-Accessori" font-family="SFProText-Regular, SF Pro Text" font-size="16" font-weight="normal" fill="#000000">
            <tspan x="16" y="520">Footwear &amp; Accessories</tspan>
        </text>
        <text id="Travel" font-family="SFProText-Regular, SF Pro Text" font-size="16" font-weight="normal" fill="#000000">
            <tspan x="16" y="576">Travel</tspan>
        </text>
        <text id="Home-&amp;-Tech" font-family="SFProText-Regular, SF Pro Text" font-size="16" font-weight="normal" fill="#000000">
            <tspan x="16" y="633">Home &amp; Tech</tspan>
        </text>
        <text id="Finances" font-family="SFProText-Regular, SF Pro Text" font-size="16" font-weight="normal" fill="#000000">
            <tspan x="16" y="689">Finances</tspan>
        </text>
        <text id="Specialty-&amp;-Gifting" font-family="SFProText-Regular, SF Pro Text" font-size="16" font-weight="normal" fill="#000000">
            <tspan x="16" y="746">Specialty &amp; Gifting</tspan>
        </text>
        <rect id="Rectangle" fill="#FEF5E4" x="289" y="45" width="67" height="28" rx="14"></rect>
        <g id="Profile" transform="translate(20.000000, 43.000000)" fill-rule="nonzero">
            <circle id="Oval" fill="#888888" cx="15" cy="15" r="15"></circle>
            <circle id="Oval" fill="#FDFDFD" cx="15" cy="12" r="5.25"></circle>
            <path d="M6.76230369,23.25 C9.43727406,20.1805532 12.300488,18.6815432 15.3519456,18.7529699 C18.8185966,18.8341153 21.4840248,20.3378356 23.3482303,23.2641307 L23.3189775,23.2641307 C22.8276638,23.9358133 22.0938593,24.5586735 21.117564,25.1327114 C19.6428567,25.9998034 17.373855,26.7158415 15.0396363,26.7158415 C12.8780316,26.7158415 10.3290918,25.7747322 9.01495444,25.1327114 C7.99733761,24.6355555 7.2453988,24.0126953 6.75913801,23.2641307 L6.75,23.2641307 C6.75174547,23.2621243 6.75349103,23.2601185 6.75523666,23.2581133 C6.75348765,23.2554105 6.7517421,23.2527061 6.75,23.25 L6.76230369,23.25 Z" id="Combined-Shape" fill="#FDFDFD"></path>
        </g>
        <g id="Drop-/-Earn-Points-Symbol" transform="translate(296.000000, 49.000000)">
            <g id="Group-2">
                <circle id="Oval-5" fill="#FFBB46" cx="10" cy="10" r="10"></circle>
                <circle id="Oval-6" fill="#FFD897" cx="10" cy="10" r="7.22222222"></circle>
                <circle id="Oval-7" fill="#FFBB46" cx="10" cy="10" r="4.44444444"></circle>
            </g>
        </g>
        <text id="868" font-family="SFProText-Bold, SF Pro Text" font-size="13" font-weight="bold" fill="#FFBB46">
            <tspan x="320" y="63">868</tspan>
        </text>
        <g id="iPhone-X/Status-Bars/Status-Bar-(Black)">
            <g>
                <rect id="Rectangle" x="0" y="0" width="375" height="44"></rect>
                <g id="Battery" transform="translate(336.000000, 17.000000)">
                    <rect id="Border" stroke="#000000" opacity="0.35" x="0.5" y="0.833333333" width="21" height="10.3333333" rx="2.66666675"></rect>
                    <path d="M23,4 L23,8 C23.8047311,7.66122348 24.328038,6.87313328 24.328038,6 C24.328038,5.12686672 23.8047311,4.33877652 23,4" id="Cap" fill="#000000" fill-rule="nonzero" opacity="0.4"></path>
                    <rect id="Capacity" fill="#000000" fill-rule="nonzero" x="2" y="2.33333333" width="18" height="7.33333333" rx="1.33333337"></rect>
                </g>
                <path d="M323.330333,19.608 C325.546226,19.6080971 327.677386,20.4595347 329.283333,21.9863333 C329.404265,22.1042079 329.597562,22.102721 329.716667,21.983 L330.872667,20.8163333 C330.932975,20.7556112 330.966599,20.6733595 330.966098,20.5877792 C330.965598,20.5021988 330.931014,20.420346 330.87,20.3603333 C326.654902,16.3207858 320.005098,16.3207858 315.79,20.3603333 C315.728941,20.4203015 315.694297,20.5021294 315.693734,20.5877099 C315.693171,20.6732903 315.726736,20.755567 315.787,20.8163333 L316.943333,21.983 C317.062362,22.1029017 317.255808,22.1043897 317.376667,21.9863333 C318.982819,20.4594344 321.114223,19.6079944 323.330333,19.608 Z M323.330333,23.4036667 C324.547823,23.4035921 325.721865,23.8561245 326.624333,24.6733333 C326.746397,24.7893139 326.938678,24.7867994 327.057667,24.6676667 L328.212333,23.501 C328.273141,23.439805 328.30688,23.3567887 328.306003,23.2705239 C328.305126,23.1842592 328.269706,23.101946 328.207667,23.042 C325.459468,20.4856177 321.203532,20.4856177 318.455333,23.042 C318.393256,23.1019453 318.357837,23.1842997 318.357023,23.2705923 C318.356208,23.356885 318.390065,23.4398934 318.451,23.501 L319.605333,24.6676667 C319.724322,24.7867994 319.916603,24.7893139 320.038667,24.6733333 C320.940539,23.8566645 322.113649,23.4041708 323.330333,23.4036667 Z M325.549333,26.188 C325.611087,26.127394 325.645095,26.0439919 325.643328,25.957485 C325.641561,25.8709782 325.604176,25.7890342 325.54,25.731 C324.264428,24.6521162 322.396238,24.6521162 321.120667,25.731 C321.056446,25.7889875 321.019,25.8709057 321.01717,25.957413 C321.01534,26.0439203 321.049289,26.1273487 321.111,26.188 L323.108667,28.2036667 C323.167217,28.2629057 323.247042,28.2962443 323.330333,28.2962443 C323.413624,28.2962443 323.49345,28.2629057 323.552,28.2036667 L325.549333,26.188 Z" id="Wifi" fill="#000000" fill-rule="nonzero"></path>
                <path d="M294.666667,24.3333333 L295.666667,24.3333333 C296.218951,24.3333333 296.666667,24.7810486 296.666667,25.3333333 L296.666667,27.3333333 C296.666667,27.8856181 296.218951,28.3333333 295.666667,28.3333333 L294.666667,28.3333333 C294.114382,28.3333333 293.666667,27.8856181 293.666667,27.3333333 L293.666667,25.3333333 C293.666667,24.7810486 294.114382,24.3333333 294.666667,24.3333333 Z M299.333333,22.3333333 L300.333333,22.3333333 C300.885618,22.3333333 301.333333,22.7810486 301.333333,23.3333333 L301.333333,27.3333333 C301.333333,27.8856181 300.885618,28.3333333 300.333333,28.3333333 L299.333333,28.3333333 C298.781049,28.3333333 298.333333,27.8856181 298.333333,27.3333333 L298.333333,23.3333333 C298.333333,22.7810486 298.781049,22.3333333 299.333333,22.3333333 Z M304,20 L305,20 C305.552285,20 306,20.4477153 306,21 L306,27.3333333 C306,27.8856181 305.552285,28.3333333 305,28.3333333 L304,28.3333333 C303.447715,28.3333333 303,27.8856181 303,27.3333333 L303,21 C303,20.4477153 303.447715,20 304,20 Z M308.666667,17.6666667 L309.666667,17.6666667 C310.218951,17.6666667 310.666667,18.1143819 310.666667,18.6666667 L310.666667,27.3333333 C310.666667,27.8856181 310.218951,28.3333333 309.666667,28.3333333 L308.666667,28.3333333 C308.114382,28.3333333 307.666667,27.8856181 307.666667,27.3333333 L307.666667,18.6666667 C307.666667,18.1143819 308.114382,17.6666667 308.666667,17.6666667 Z" id="Cellular-Connection" fill="#000000" fill-rule="nonzero"></path>
                <g id="iPhone-X/Overrides/Time-Black" transform="translate(21.000000, 13.000000)" fill="#000000" font-family="SFProText-Semibold, SF Pro Text" font-size="14" font-weight="500" letter-spacing="-0.280000001">
                    <text id="↳-Time">
                        <tspan x="12.3023242" y="15.5">9:4</tspan>
                        <tspan x="34.7523633" y="15.5">1</tspan>
                    </text>
                </g>
            </g>
        </g>
        <path d="M0.5,84.5 L378.5,84.5" id="Line" stroke="#979797" stroke-width="0.25" stroke-linecap="square"></path>
        <text id="Browse" font-family="SFProText-Medium, SF Pro Text" font-size="18" font-weight="400" fill="#000000">
            <tspan x="156.095703" y="64">Browse</tspan>
        </text>
        <g id="iPhone-X/Home-Indicator/Home-Indicator---On-Light" transform="translate(0.000000, 778.000000)" fill="#000000">
            <rect id="Rectangle-24" x="121" y="20" width="134" height="5" rx="2.5"></rect>
        </g>
    </g>
</svg>